<svg width="21" height="20" viewBox="0 0 21 20" fill="none" xmlns="http://www.w3.org/2000/svg">
<path d="M3.2949 5.05601C3.2949 3.80701 4.3069 2.79501 5.5559 2.79401H6.5849C7.1819 2.79401 7.7539 2.55701 8.1779 2.13701L8.8969 1.41701C9.7779 0.531012 11.2099 0.527012 12.0959 1.40801L12.0969 1.40901L12.1059 1.41701L12.8259 2.13701C13.2499 2.55801 13.8219 2.79401 14.4189 2.79401H15.4469C16.6959 2.79401 17.7089 3.80601 17.7089 5.05601V6.08301C17.7089 6.68001 17.9449 7.25301 18.3659 7.67701L19.0859 8.39701C19.9719 9.27801 19.9769 10.71 19.0959 11.596L19.0949 11.597L19.0859 11.606L18.3659 12.326C17.9449 12.749 17.7089 13.321 17.7089 13.918V14.947C17.7089 16.196 16.6969 17.208 15.4479 17.208H15.4469H14.4169C13.8199 17.208 13.2469 17.445 12.8239 17.866L12.1039 18.585C11.2239 19.471 9.7929 19.476 8.9069 18.597C8.9059 18.596 8.9049 18.595 8.9039 18.594L8.8949 18.585L8.1759 17.866C7.7529 17.445 7.1799 17.209 6.5829 17.208H5.5559C4.3069 17.208 3.2949 16.196 3.2949 14.947V13.916C3.2949 13.319 3.0579 12.747 2.6369 12.324L1.9179 11.604C1.0319 10.724 1.0269 9.29301 1.9069 8.40701C1.9069 8.40601 1.9079 8.40501 1.9089 8.40401L1.9179 8.39501L2.6369 7.67501C3.0579 7.25101 3.2949 6.67901 3.2949 6.08101V5.05601" stroke="#1D2939" stroke-width="1.5" stroke-linecap="round" stroke-linejoin="round"/>
<path d="M7.9316 12.5718L13.0716 7.43176" stroke="#1D2939" stroke-width="1.5" stroke-linecap="round" stroke-linejoin="round"/>
<path d="M12.9955 12.5H13.0045" stroke="#1D2939" stroke-width="2" stroke-linecap="round" stroke-linejoin="round"/>
<path d="M7.9955 7.5H8.0045" stroke="#1D2939" stroke-width="2" stroke-linecap="round" stroke-linejoin="round"/>
</svg>
